<?xml version="1.0" encoding="UTF-8"?>
<svg id="Layer_1" xmlns="http://www.w3.org/2000/svg" version="1.1" viewBox="0 0 280 280">
  <!-- Generator: Adobe Illustrator 30.3.0, SVG Export Plug-In . SVG Version: 2.1.3 Build 182)  -->
  <defs>
    <style>
      .st0 {
        fill: #231f20;
      }
    </style>
  </defs>
  <path class="st0" d="M137.87,3.95c.46,0,.99-.02,1.41.19,1.95.97,10.72,17.73,12.94,21.14,1.36,2.09,3.8,4.29,4.63,6.64.26.75.15,1.22-.19,1.91-2,1.82-9.73,1.26-12.66,1.19.03,5.01-.26,47.08.43,48.11,3.36-.25,13.66-14.81,16.3-18.1,6.25-7.77,12.92-15.2,19.97-22.26,5.09-5.1,10.18-7.82,16.9-10.24,3.04-1.1,6.04-2.09,9.27-2.41,5.22-.53,10.82-.13,16.1-.13,8.62,0,17.2,2.54,23.41,8.76,7.64,7.66,6.72,10.43,6.69,20.84-.02,8.72-11.31,24.45-16.86,31.36-1.61,2-3.5,3.75-5.14,5.73-2.29,2.77-4.41,5.71-6.81,8.39-1.91,2.15-4.07,4.07-5.99,6.2-1.5,1.67-2.85,3.47-4.34,5.15-1.78,1.99-3.77,3.78-5.57,5.75-1.52,1.67-2.86,3.5-4.36,5.19-1.9,2.13-4.03,4.1-6.05,6.12-7.3,7.28-18.43,20.45-21.54,30.37-.95,3.04-.39,19.77-.39,23.96v54.51c0,10.27-1.48,18.54-8.96,26.2-8.88,9.1-15.55,7.54-27.44,7.48-6.49.03-17.69.81-23.51-2.28-4.69-2.77-11.63-10.3-13.17-15.64-2.92-10.14-1.93-23.86-1.93-34.41l-.03-43.89c.02-4.32.53-12.95-.61-16.83-1.3-3.58-3.43-7.19-5.37-10.38-3.46-5.68-8.11-9.66-12.25-14.54-10.48-12.61-21.42-24.83-32.78-36.64-2.08-2.17-3.9-4.75-5.8-7.02-6.77-7.82-12.34-15.45-17-24.67-4.24-6.68-2.82-10.62-3.19-18.05-.42-8.3,6.43-13.04,12.4-17.69,2.64-.98,9.28-3.76,11.8-3.78,7.85-.07,18.29-.92,25.8.35,4.53.77,13.63,4.09,17.01,6.56,5.48,4.01,10.87,10.55,15.85,15.32,9.03,10.3,16.74,21.27,26.23,31.24-.19-5.77-.06-12.32-.06-18.17l.03-30.49c-7.27.2-19.02,2-9.64-8.93,1.02-1.19,2.09-2.96,2.89-4.32,1.84-3.16,3.63-6.35,5.35-9.57,2.14-4,2.3-5.45,6.24-8.26ZM144.22,127.9l2.6-4.64c9.04-14.31,17.4-21,29.35-32.46l19.02-18.59c-2.37-1.58-7.81-4.71-7.04-8.03.73-.94,1.77-1.42,2.87-1.81,3.41-1.21,7.34-1.65,10.88-2.34,3.65-.71,7.33-1.67,11.03-2.11,1.36-.16,3.47-.39,4.6.6.63.55.65,1.36.65,2.14-.02,3.7-4.09,23.85-6.06,25.92-.39.41-1.01.6-1.57.55-1.85-.15-3.6-2.33-4.63-3.72-.94-1.26-1.82-2.57-2.71-3.86-7.13,7.25-15,13.93-22.15,21.14-8.22,8.29-17.91,16.59-24.76,26.04-3.61,4.98-6.53,10.43-8.69,16.2-3.66,9.73-3.71,15.6-6.08,24.81-1.21-.07-5.33-.11-5.84-.93-1.36-2.16-1.78-8.25-2.26-10.83-1.44-7.71-4.69-16.56-8.45-23.29-8.16-14.62-22.47-26.57-34.68-37.84-5.52-5.09-10.93-10.08-16.56-15.03-2.01,3.12-6.34,12.02-9.28,4.02-.81-2.19-1.58-6.14-2.06-8.46-.76-3.68-3.75-13.41-2.62-16.81.5-.61,1.19-1.17,2.06-1.14,3.22.11,6.44.86,9.58,1.64,4.83,1.2,9.73,2.19,14.57,3.39,1.38.34,3.64,1.67,3.58,3.38-.21,2.89-4.52,5.33-6.79,6.62,8.89,8.53,18.02,16.59,26.79,25.29,4.78,4.74,8.87,8.36,13.31,13.51,2.32,2.69,4.48,5.52,6.45,8.47,1.33,2.02,3.06,5.01,4.49,6.82-.91-8.29-.96-16.56-.38-24.86.19-2.76-10.62-14.53-12.92-17.21-9.02-10.49-17.34-21.45-26.58-31.73-10.34-11.64-23.3-13.56-38.21-12.91-6.41.27-13.69,1.06-18.31,6.12-2.53,2.77-3.37,6.42-3.15,10.1.93,15.86,24.6,39.09,35.18,51,5.02,5.65,9.63,11.66,14.7,17.29,8.8,9.78,19.31,19.52,24.14,31.99,1.55,3.99,2.6,8.06,3.07,12.31.85,7.8.31,16.05.28,23.92l-.09,40.48c-.15,24.36-1.51,35.75,28.57,34.27,7.36-.36,15.22.12,20.65-6.31,2.12-2.51,3.42-5.34,4.05-8.56,1.37-8.36,1.03-17.71,1.02-26.2l-.14-40.83c0-9.59-1.14-21.86,3.44-30.56,10.38-19.66,27.67-34.4,41.93-51.38,10.96-13.05,32.02-31.15,31.79-49.55-.18-14.55-22.6-15.17-32.71-13.87-15.01,1.94-21.76,6.39-31.15,17.83l-21.29,25.83c-2.73,3.25-12.9,14.47-14.27,17.5.61,2.74.51,4.94.52,7.73.02,6.3-.12,12.66.21,18.95Z"/>
</svg>